<?xml version="1.0" standalone="no"?>
<!DOCTYPE svg PUBLIC "-//W3C//DTD SVG 20010904//EN"
 "http://www.w3.org/TR/2001/REC-SVG-20010904/DTD/svg10.dtd">
<svg version="1.0" xmlns="http://www.w3.org/2000/svg"
 width="512.000000pt" height="512.000000pt" viewBox="0 0 512.000000 512.000000"
 preserveAspectRatio="xMidYMid meet">
<metadata>
Created by potrace 1.11, written by Peter Selinger 2001-2013
</metadata>
<g transform="translate(0.000000,512.000000) scale(0.100000,-0.100000)"
fill="#000000" stroke="none">
<path d="M2375 5114 c-369 -38 -643 -112 -933 -254 -256 -125 -448 -259 -650
-454 -230 -223 -385 -433 -521 -707 -185 -373 -266 -717 -266 -1139 0 -422 81
-766 266 -1139 136 -274 291 -484 521 -707 389 -376 878 -613 1423 -690 180
-26 510 -26 690 0 545 77 1034 314 1423 690 230 223 385 433 521 707 185 373
266 717 266 1139 0 246 -17 394 -70 610 -91 368 -276 736 -513 1020 -409 489
-971 807 -1597 901 -125 19 -463 33 -560 23z m-505 -842 c19 -9 45 -33 58 -52
20 -29 23 -44 20 -94 -4 -55 -7 -62 -49 -99 -24 -21 -63 -57 -87 -78 -66 -60
-85 -113 -80 -219 5 -115 42 -194 128 -273 83 -77 147 -101 270 -102 88 0 101
3 161 32 79 39 160 121 194 195 13 29 30 94 38 143 27 163 86 278 198 379 106
96 239 146 386 146 107 0 171 -14 263 -57 99 -47 222 -168 268 -263 119 -247
66 -518 -138 -703 -74 -66 -114 -87 -170 -87 -76 0 -133 49 -146 127 -8 52 14
103 61 139 123 94 148 138 149 254 0 89 -28 154 -93 213 -68 61 -96 72 -191
72 -103 0 -145 -19 -214 -96 -49 -55 -64 -95 -85 -227 -41 -263 -266 -497
-537 -558 -107 -23 -260 -15 -370 20 -198 63 -369 233 -441 438 -21 59 -27 97
-31 195 -4 112 -2 130 22 205 32 103 88 189 172 267 106 97 172 120 244 83z
m262 -1478 c50 -34 98 -119 98 -172 0 -126 -94 -221 -218 -222 -65 0 -107 17
-151 61 -84 84 -86 222 -5 303 74 74 195 87 276 30z m1017 1 c128 -85 129
-271 3 -360 -40 -27 -51 -30 -122 -30 -71 0 -82 3 -122 30 -124 88 -125 275 0
357 50 34 65 37 138 34 46 -3 71 -10 103 -31z m461 -653 c99 -49 109 -189 18
-254 -33 -23 -34 -23 -396 -26 -200 -2 -362 -6 -360 -10 2 -4 17 -34 35 -68
45 -87 63 -163 70 -299 5 -107 3 -127 -17 -185 -51 -150 -203 -316 -363 -395
-160 -79 -149 -78 -627 -82 l-425 -4 -44 23 c-109 57 -108 208 2 258 39 18 69
20 432 20 414 0 443 3 535 50 52 26 165 132 187 173 28 54 35 143 18 210 -31
121 -101 204 -224 265 l-75 37 -430 5 -431 5 -34 24 c-89 64 -79 201 19 252
33 18 81 19 1055 19 951 0 1022 -1 1055 -18z"/>
</g>
</svg>
